<svg width="64" height="64" viewBox="0 0 64 64" fill="none" xmlns="http://www.w3.org/2000/svg">
  <rect width="64" height="64" rx="12" fill="#1A1D2D"/>
  <path d="M32 16C23.164 16 16 23.164 16 32C16 40.836 23.164 48 32 48C40.836 48 48 40.836 48 32C48 23.164 40.836 16 32 16ZM32 20C38.617 20 44 25.383 44 32C44 38.617 38.617 44 32 44C25.383 44 20 38.617 20 32C20 25.383 25.383 20 32 20Z" fill="#FFFFFF"/>
  <path d="M32 24C27.582 24 24 27.582 24 32C24 36.418 27.582 40 32 40C36.418 40 40 36.418 40 32C40 27.582 36.418 24 32 24ZM32 28C34.209 28 36 29.791 36 32C36 34.209 34.209 36 32 36C29.791 36 28 34.209 28 32C28 29.791 29.791 28 32 28Z" fill="#4A90E2"/>
  <path d="M32 12L35.464 14.536L32 17.071L28.536 14.536L32 12Z" fill="#4A90E2"/>
  <path d="M32 46.929L35.464 49.464L32 52L28.536 49.464L32 46.929Z" fill="#4A90E2"/>
  <path d="M52 32L49.464 35.464L46.929 32L49.464 28.536L52 32Z" fill="#4A90E2"/>
  <path d="M17.071 32L14.536 35.464L12 32L14.536 28.536L17.071 32Z" fill="#4A90E2"/>
  <path d="M44.142 19.858L45.556 24.445L40.97 25.858L39.556 21.272L44.142 19.858Z" fill="#4A90E2"/>
  <path d="M23.03 38.142L24.444 42.728L19.858 44.142L18.444 39.556L23.03 38.142Z" fill="#4A90E2"/>
  <path d="M44.142 44.142L39.556 42.728L40.97 38.142L45.556 39.556L44.142 44.142Z" fill="#4A90E2"/>
  <path d="M19.858 19.858L24.444 21.272L23.03 25.858L18.444 24.444L19.858 19.858Z" fill="#4A90E2"/>
</svg>
